<?xml version="1.0" encoding="UTF-8"?>
<svg id="Layer_1" data-name="Layer 1" xmlns="http://www.w3.org/2000/svg" viewBox="0 0 1340.48 1192.73">
  <defs>
    <style>
      .cls-1 {
        fill: #2f3e36;
      }
    </style>
  </defs>
  <g>
    <path class="cls-1" d="M534.63,858.94c-19.05-2.13-41.96-10.15-60.3-10.19-14.52,0-41.44,4.57-56.32,7.46-77.87,15.17-142.83,58.94-159.52,140.5,16.25-.08,32.78.12,48.99,1.72,46.34,4.66,77.75,19.78,126.97,13.52,86.7-10.95,168.06-79.67,197.07-161.4-32.46,6.94-63.59,12.08-96.89,8.39ZM401.76,811.28c-25.64-22.11-49.51-34.79-73.66-62.15-44.45-50.35-53-116.5-130.87-123.64-79.39-7.26-141.58,40.2-184.26,102.42-3.01,4.37-11.27,16.82-12.4,20.42-.54,1.72-.57,1.93-.57,1.96,0,0,26.85,11.28,37.88,17.42,55.68,31.01,88.7,80.36,153.98,98.77,81.92,23.11,105.35-15.93,172.75-39.6,12.68-4.45,29.26-8.61,42.37-11.62-2-1.58-3.46-2.46-5.22-3.98ZM218.09,460.2c-14.8-44.01-28.28-65.92-78.67-58.05-34.78,5.49-70.09,21.22-100.9,37.59,7.74,16.41,17.13,31.73,24.27,48.54,12.24,28.73,23.25,82.29,54.08,95.52,13.13,5.64,23.67-.12,39.36-1.48,29.57-2.57,58.65,1.72,86.78,10.27l-24.92-132.39ZM636.29,760.65c-26.36-68.65-71.69-145.91-137.69-182.1-48.58-26.64-106.63-30.25-158.5-49.55-24.96-9.27-47.67-22.43-71.3-34.42,7.55,76.75,31.5,155.42,80.84,215.76,53.52,65.47,139.68,116.58,225.99,107.52,31.35-3.29,69.77-17.9,69.77-17.9,0,0-6.1-31.45-9.11-39.31ZM464.65,448.62c-34.99-15.13-72.98-20.94-108.65-34.06-55.56-20.42-108.08-60.58-122.88-120.4,40.56,47.06,95.94,84.74,159.04,92.25,0,0,.27-2.83.15-4.59-.88-13.24-6.86-29.61-7.9-43.85-2.53-35.47,3.01-74.18,14.24-107.8,4.25-12.68,21.66-42.85,21.95-52.15.4-13.69-26.96-34.31-38.04-41.09-50.31-30.61-95.72-19.78-150.32-16.49-11.12.69-22.19.44-33.44.26l-3.01-.1c6.9,39.23-4.96,80.88-7.36,119.4-7.06,114.14,62.34,181.86,165.45,212.79,32.86,9.87,67.24,14.44,99.73,25.8,59.9,20.94,104.71,58.73,140.9,110.08l27.12,44.21c-14.2-82.16-82.04-151.89-156.98-184.26Z"/>
    <path class="cls-1" d="M886.89,359.27c-10.03,42.48-37.43,44.57-70.81,63.34-73.46,41.29-105.88,88.14-143.07,161.2-.68,1.33-2.77,4.4-2.77,4.4,0,0-2.09-3.07-2.77-4.4-37.19-73.06-69.61-119.91-143.07-161.2-33.38-18.77-60.78-20.86-70.81-63.34-12.4-52.48-3.01-110.61,22.91-157.63,46.02-83.49,139.06-125.26,193.74-201.64,54.68,76.38,147.72,118.15,193.74,201.64,25.92,47.02,35.31,105.15,22.91,157.63Z"/>
  </g>
  <g>
    <path class="cls-1" d="M922.47,856.21c-14.88-2.89-41.8-7.46-56.32-7.46-18.34.04-41.25,8.06-60.3,10.19-33.3,3.69-64.43-1.45-96.89-8.39,29.01,81.73,110.37,150.45,197.07,161.4,49.22,6.26,80.63-8.86,126.97-13.52,16.21-1.6,32.74-1.8,48.99-1.72-16.69-81.56-81.65-125.33-159.52-140.5ZM1339.91,748.33c-1.13-3.6-9.39-16.05-12.4-20.42-42.68-62.22-104.87-109.68-184.26-102.42-77.87,7.14-86.42,73.29-130.87,123.64-24.15,27.36-48.02,40.04-73.66,62.15-1.76,1.52-3.22,2.4-5.22,3.98,13.11,3.01,29.69,7.17,42.37,11.62,67.4,23.67,90.83,62.71,172.75,39.6,65.28-18.41,98.3-67.76,153.98-98.77,11.03-6.14,37.88-17.42,37.88-17.42,0-.03-.03-.24-.57-1.96ZM1201.06,402.15c-50.39-7.87-63.87,14.04-78.67,58.05l-24.92,132.39c28.13-8.55,57.21-12.84,86.78-10.27,15.69,1.36,26.23,7.12,39.36,1.48,30.83-13.23,41.84-66.79,54.08-95.52,7.14-16.81,16.53-32.13,24.27-48.54-30.81-16.37-66.12-32.1-100.9-37.59ZM1000.38,529c-51.87,19.3-109.92,22.91-158.5,49.55-66,36.19-111.33,113.45-137.69,182.1-3.01,7.86-9.11,39.31-9.11,39.31,0,0,38.42,14.61,69.77,17.9,86.31,9.06,172.47-42.05,225.99-107.52,49.34-60.34,73.29-139.01,80.84-215.76-23.63,11.99-46.34,25.15-71.3,34.42ZM1152.05,240c-2.4-38.52-14.26-80.17-7.36-119.4l-3.01.1c-11.25.18-22.32.43-33.44-.26-54.6-3.29-100.01-14.12-150.32,16.49-11.08,6.78-38.44,27.4-38.04,41.09.29,9.3,17.7,39.47,21.95,52.15,11.23,33.62,16.77,72.33,14.24,107.8-1.04,14.24-7.02,30.61-7.9,43.85-.12,1.76.15,4.59.15,4.59,63.1-7.51,118.48-45.19,159.04-92.25-14.8,59.82-67.32,99.98-122.88,120.4-35.67,13.12-73.66,18.93-108.65,34.06-74.94,32.37-142.78,102.1-156.98,184.26l27.12-44.21c36.19-51.35,81-89.14,140.9-110.08,32.49-11.36,66.87-15.93,99.73-25.8,103.11-30.93,172.51-98.65,165.45-212.79Z"/>
    <path class="cls-1" d="M739.05,1120.55l-68.8,72.18h0s0,0,0,0l-68.8-72.18c-22.55-24.35-55.28-90.54-32.5-120.23,6.22-8.11,18.74-14.57,26.52-21.63,17.37-15.8,38.11-41.28,50.55-61.22,8.83-14.12,14.88-27.59,22.04-41.43,1.03-1.99,1.36-2.72,2.2-4.11.84,1.39,1.17,2.12,2.2,4.11,7.16,13.84,13.21,27.31,22.04,41.43,12.44,19.94,33.18,45.42,50.55,61.22,7.78,7.06,20.3,13.52,26.52,21.63,22.78,29.69-9.95,95.88-32.5,120.23Z"/>
  </g>
</svg>