<?xml version="1.0" encoding="UTF-8"?>
<svg id="Layer_1" data-name="Layer 1" xmlns="http://www.w3.org/2000/svg" viewBox="0 0 1719.14 543.88">
  <defs>
    <style>
      .cls-1 {
        fill: #2f3e36;
      }
    </style>
  </defs>
  <g>
    <g>
      <path class="cls-1" d="M243.4,391.48c-8.67-.97-19.1-4.62-27.45-4.64-6.61,0-18.87,2.08-25.64,3.4-35.45,6.91-65.02,26.83-72.62,63.96,7.4-.04,14.92.05,22.3.78,21.1,2.12,35.4,9,57.8,6.16,39.47-4.99,76.51-36.27,89.72-73.48-14.78,3.16-28.95,5.5-44.11,3.82ZM182.91,369.78c-11.67-10.07-22.54-15.84-33.53-28.29-20.24-22.92-24.13-53.04-59.58-56.29-36.14-3.31-64.46,18.3-83.89,46.63-1.37,1.99-5.13,7.66-5.65,9.3-.25.78-.26.88-.26.89,0,0,12.22,5.14,17.25,7.93,25.35,14.12,40.38,36.58,70.1,44.97,37.29,10.52,47.96-7.25,78.65-18.03,5.77-2.03,13.32-3.92,19.29-5.29-.91-.72-1.58-1.12-2.38-1.81ZM99.29,209.95c-6.74-20.04-12.87-30.01-35.82-26.43-15.83,2.5-31.91,9.66-45.94,17.11,3.52,7.47,7.8,14.45,11.05,22.1,5.57,13.08,10.58,37.46,24.62,43.49,5.98,2.57,10.78-.05,17.92-.67,13.46-1.17,26.7.78,39.51,4.68l-11.35-60.27ZM289.68,346.73c-12-31.25-32.64-66.43-62.68-82.9-22.12-12.13-48.54-13.77-72.16-22.56-11.36-4.22-21.7-10.21-32.46-15.67,3.44,34.94,14.34,70.76,36.8,98.23,24.37,29.81,63.59,53.07,102.88,48.95,14.27-1.5,31.76-8.15,31.76-8.15,0,0-2.78-14.32-4.15-17.9ZM211.54,204.68c-15.93-6.89-33.22-9.53-49.46-15.51-25.29-9.3-49.2-27.58-55.94-54.81,18.47,21.42,43.68,38.58,72.4,42,0,0,.12-1.29.07-2.09-.4-6.03-3.12-13.48-3.6-19.96-1.15-16.15,1.37-33.77,6.48-49.08,1.93-5.77,9.86-19.51,9.99-23.74.18-6.23-12.27-15.62-17.32-18.71-22.9-13.94-43.58-9.01-68.43-7.51-5.06.31-10.1.2-15.22.12l-1.37-.05c3.14,17.86-2.26,36.82-3.35,54.36-3.21,51.96,28.38,82.79,75.32,96.87,14.96,4.49,30.61,6.57,45.4,11.75,27.27,9.53,47.67,26.74,64.15,50.11l12.35,20.13c-6.46-37.4-37.35-69.15-71.47-83.89Z"/>
      <path class="cls-1" d="M403.77,164c-4.57,19.34-17.04,20.29-32.24,28.84-33.44,18.8-48.2,40.13-65.13,73.39-.31.61-1.26,2-1.26,2,0,0-.95-1.4-1.26-2-16.93-33.26-31.69-54.59-65.13-73.39-15.2-8.55-27.67-9.5-32.24-28.84-5.65-23.89-1.37-50.36,10.43-71.76,20.95-38.01,63.31-57.03,88.2-91.8,24.89,34.77,67.25,53.79,88.2,91.8,11.8,21.41,16.08,47.87,10.43,71.76Z"/>
    </g>
    <g>
      <path class="cls-1" d="M419.96,390.24c-6.77-1.32-19.03-3.4-25.64-3.4-8.35.02-18.78,3.67-27.45,4.64-15.16,1.68-29.33-.66-44.11-3.82,13.21,37.21,50.25,68.49,89.72,73.48,22.41,2.85,36.71-4.03,57.8-6.16,7.38-.73,14.91-.82,22.3-.78-7.6-37.13-37.17-57.06-72.62-63.96ZM610.01,341.12c-.51-1.64-4.27-7.31-5.65-9.3-19.43-28.33-47.74-49.93-83.89-46.63-35.45,3.25-39.34,33.37-59.58,56.29-10.99,12.46-21.86,18.23-33.53,28.29-.8.69-1.47,1.09-2.38,1.81,5.97,1.37,13.52,3.26,19.29,5.29,30.68,10.78,41.35,28.55,78.65,18.03,29.72-8.38,44.75-30.85,70.1-44.97,5.02-2.8,17.25-7.93,17.25-7.93,0-.01-.01-.11-.26-.89ZM546.79,183.52c-22.94-3.58-29.08,6.39-35.82,26.43l-11.35,60.27c12.81-3.89,26.05-5.85,39.51-4.68,7.14.62,11.94,3.24,17.92.67,14.04-6.02,19.05-30.41,24.62-43.49,3.25-7.65,7.53-14.63,11.05-22.1-14.03-7.45-30.1-14.61-45.94-17.11ZM455.43,241.27c-23.61,8.79-50.04,10.43-72.16,22.56-30.05,16.48-50.68,51.65-62.68,82.9-1.37,3.58-4.15,17.9-4.15,17.9,0,0,17.49,6.65,31.76,8.15,39.29,4.12,78.52-19.14,102.88-48.95,22.46-27.47,33.37-63.29,36.8-98.23-10.76,5.46-21.1,11.45-32.46,15.67ZM524.48,109.7c-1.09-17.54-6.49-36.5-3.35-54.36l-1.37.05c-5.12.08-10.16.2-15.22-.12-24.86-1.5-45.53-6.43-68.43,7.51-5.04,3.09-17.5,12.47-17.32,18.71.13,4.23,8.06,17.97,9.99,23.74,5.11,15.31,7.63,32.93,6.48,49.08-.47,6.48-3.2,13.94-3.6,19.96-.05.8.07,2.09.07,2.09,28.73-3.42,53.94-20.57,72.4-42-6.74,27.23-30.65,45.52-55.94,54.81-16.24,5.97-33.53,8.62-49.46,15.51-34.12,14.74-65,46.48-71.47,83.89l12.35-20.13c16.48-23.38,36.88-40.58,64.15-50.11,14.79-5.17,30.44-7.25,45.4-11.75,46.94-14.08,78.54-44.91,75.32-96.87Z"/>
      <path class="cls-1" d="M336.46,510.58l-31.32,32.86h0s0,0,0,0l-31.32-32.86c-10.27-11.09-25.17-41.22-14.8-54.74,2.83-3.69,8.53-6.63,12.07-9.85,7.91-7.19,17.35-18.79,23.01-27.87,4.02-6.43,6.77-12.56,10.03-18.86.47-.91.62-1.24,1-1.87.38.63.53.97,1,1.87,3.26,6.3,6.01,12.43,10.03,18.86,5.66,9.08,15.11,20.68,23.01,27.87,3.54,3.21,9.24,6.16,12.07,9.85,10.37,13.52-4.53,43.65-14.8,54.74Z"/>
    </g>
  </g>
  <g>
    <g>
      <g>
        <path class="cls-1" d="M707.59,0h52.63v263.17h-52.63V0Z"/>
        <path class="cls-1" d="M938.87,75.19l-68.43,187.98h-36.84l-61.28-187.98h50l50.54,149.85c5.18-14.85,12.39-35.47,22.4-64.13,8.64-25.19,11.65-65.79-18.8-85.72h62.41Z"/>
        <path class="cls-1" d="M1362.14,233.81c-5.44-22.8-40.16-39.08-84.93-35.05,2.56,0,56.78,15.76,22.11,59.47-9.19,11.59-24.66,16.21-37.59,18.34-29.85,4.9-56.5.49-69.94-1.34-23-3.12-69.06-14.28-109.52-18.1,0,0-12.43-1.18-29.98-1.05,19.81-53.92,63.13-171.82,66.33-180.84-2-.12-16.82-.1-31.48-.07-13.25.02-30.7.01-30.7.01,0,0,.52.4,2.03,1.55.48.38,1.06.82,1.66,1.29,32.62,28.14,20.63,70.09,7.69,102.83-4.09,11.23-9.46,25.99-14.91,40.99-2.31-6.72-5.44-15.71-9-26.09-13.63-39.46-41.91-120.99-41.91-120.99h-11.1c-8.98,0-26.44.39-35.3.42h-4.65s62.22,139.83,81.44,181.59c-29.27,1.92-63.94,8.33-81.91,26.73-.06.07-.13.14-.13.14-8.18,8.52-8.44,23.56-6.59,31.26,4.95,20.58,34.6,26.56,50.05,23.38,26.99-5.55,39.51-33.58,48.68-55.58l.11-.28c.36-.98,1.76-4.79,3.96-10.74,17.32.08,31.14,1.08,42.06,2.47,16.01,2.04,28.57,5.02,53.04,10.89,34.16,8.2,36.61,10.07,55.29,13.91,17.74,3.65,35.6,7.32,56.05,7.59,18.39.24,80.35,1.05,102.73-36.79,1.89-3.2,10.54-18.64,6.41-35.94ZM1028.65,288.55c-5.71,14.82-13.29,28.77-26.69,33.18-19.78,7.67-35.19-10.98-27.19-28.59,9.28-17.11,38.56-20.68,59.97-21.34-3.22,8.86-5.48,15.08-6.09,16.75Z"/>
        <path class="cls-1" d="M1156.68,256.79c1.04-18.08,2.09-46.61,7.09-66.44,4.5-17.83,19.66-77.91,61.98-89.8,3.58-1.01,20.73-5.39,36.38,3.05,20.64,11.13,27.44,48.89,12.01,91.13.68-1.87-.32-59.09-51.76-36.71-13.57,5.9-22.02,19.66-27.4,31.61-12.42,27.58-16.87,57.13-18.56,70.59l-19.74-3.43Z"/>
      </g>
      <path class="cls-1" d="M759.96,293.26v108.48h62.47v11.22h-62.47v119.7h13.47c28.43,0,63.96-12.72,75.19-52.37v63.59h-141.02v-261.84h141.02v63.59c-11.23-39.65-46.76-52.37-75.19-52.37h-13.47Z"/>
      <path class="cls-1" d="M1018.55,356.85l-68.07,187.03h-36.66l-60.97-187.03h49.75l50.28,149.09c5.16-14.77,12.33-35.29,22.28-63.8,8.61-25.07,11.6-65.46-18.7-85.29h62.09Z"/>
      <path class="cls-1" d="M1178.31,472.1c0,33.4-21.69,57.46-51.24,57.46-18.66,0-34.27-12.71-45.66-29.81h.02c36.66-7.54,99.5-30.88,99.5-86.18,0-34.47-32.91-56.74-84.91-56.74-47.5,0-86.03,41.66-86.03,93.37,0,48.84,38.9,93.37,97.25,93.37,69.95,0,82.3-44.89,82.3-71.47h-11.23ZM1096.02,367.6c24.69,0,37.78,23.71,38.16,49.2.71,39.15-14.92,57.57-58,74.29-10.23-18.7-15.87-40.56-15.69-56.69.37-43.81,13.84-66.8,35.53-66.8Z"/>
      <path class="cls-1" d="M1381.39,432.99v110.89h-45.94c-.37-29.64,0-93.69,0-122.97,0-32.94-17.21-52.71-40.77-52.71-14.75,0-27.77,6.6-37.41,17.84v157.84h-52.36v-186.65h52.36v13.95c11.17-9.34,26.42-13.95,43.39-13.95,49,0,80.73,15.73,80.73,75.76Z"/>
      <path class="cls-1" d="M1542.96,517.43c-6.25,18.02-21.34,26.45-46.4,26.45-66.21,0-87.91-26.93-87.91-68.08v-111.47h-18.7v-11.21h18.7v-71.08h52.37v71.08h43.77v11.21h-43.77v117.83c0,25.06,6.36,49.75,28.06,49.75,18.32,0,31.42-18.33,31.42-50.87,16.83,0,27.6,21.54,22.46,36.39Z"/>
    </g>
    <path class="cls-1" d="M1560.17,410.43c0-37.77,33.67-53.6,75.93-53.6,37.41,0,75.56,10.79,75.56,36.33,0,21.58-30.3,31.65-47.13,31.65,4.12-33.09-3.74-57.19-28.43-57.19-16.08,0-27.31,11.15-27.31,25.18,0,53.96,110.35,37.77,110.35,92.45,0,47.84-53.49,58.63-86.03,58.63-29.55,0-76.68-10.79-76.68-41.37s30.3-34.53,47.13-34.53c-11.22,17.27-11.22,65.11,29.55,65.11,19.82,0,37.41-10.79,37.41-32.01,0-41.73-110.35-24.46-110.35-90.65Z"/>
  </g>
</svg>